<?xml version="1.0" standalone="no"?>
<!DOCTYPE svg PUBLIC "-//W3C//DTD SVG 20010904//EN"
 "http://www.w3.org/TR/2001/REC-SVG-20010904/DTD/svg10.dtd">
<svg version="1.0" xmlns="http://www.w3.org/2000/svg"
 width="500.000000pt" height="500.000000pt" viewBox="0 0 500.000000 500.000000"
 preserveAspectRatio="xMidYMid meet">

<style>
  /* Default (light mode) colors */
  .logo-fill {
    fill: #000000; /* Black for light mode */
  }
  
  /* Dark mode colors - multiple selectors for compatibility */
  html.dark .logo-fill,
  body[data-theme="dark"] .logo-fill,
  [data-theme="dark"] .logo-fill {
    fill: #ffffff; /* White for dark mode */
  }
  
  /* Fallback for prefers-color-scheme */
  @media (prefers-color-scheme: dark) {
    .logo-fill {
      fill: #ffffff; /* White for dark mode */
    }
  }
</style>

<g transform="translate(0.000000,500.000000) scale(0.100000,-0.100000)"
class="logo-fill" stroke="none">
<path d="M0 2500 l0 -750 750 0 750 0 0 750 0 750 -750 0 -750 0 0 -750z m927
486 c80 -37 143 -103 172 -182 20 -50 22 -74 19 -159 -3 -83 -8 -108 -30 -150
-75 -145 -196 -195 -470 -195 l-98 0 0 -210 0 -210 -115 0 -115 0 0 571 0 570
288 -3 287 -3 62 -29z"/>
<path d="M520 2666 l0 -176 128 0 c145 0 181 11 219 69 31 46 33 160 3 208
-36 60 -59 68 -212 71 l-138 4 0 -176z"/>
<path d="M1750 2500 l0 -750 750 0 750 0 0 750 0 750 -750 0 -750 0 0 -750z
m1007 486 c80 -37 143 -103 172 -182 20 -50 22 -74 19 -159 -3 -83 -8 -108
-30 -150 -75 -145 -196 -195 -470 -195 l-98 0 0 -210 0 -210 -115 0 -115 0 0
571 0 570 288 -3 287 -3 62 -29z"/>
<path d="M2350 2666 l0 -176 128 0 c145 0 181 11 219 69 31 46 33 160 3 208
-36 60 -59 68 -212 71 l-138 4 0 -176z"/>
<path d="M3500 2500 l0 -750 750 0 750 0 0 750 0 750 -750 0 -750 0 0 -750z
m947 524 c86 -18 156 -49 207 -95 l35 -30 -57 -79 c-31 -44 -62 -79 -68 -80
-6 0 -19 9 -30 21 -10 12 -41 33 -69 47 -68 35 -222 44 -280 16 -70 -33 -92
-106 -50 -170 24 -36 65 -53 213 -85 211 -45 306 -101 356 -208 17 -37 21 -65
21 -146 0 -89 -3 -106 -28 -157 -51 -103 -147 -167 -287 -189 -142 -22 -323
12 -429 81 -52 33 -121 102 -121 121 0 10 118 159 127 159 2 0 27 -24 56 -53
73 -75 145 -108 249 -114 73 -4 89 -2 128 19 118 61 101 210 -29 252 -25 9
-95 27 -155 41 -185 43 -263 91 -313 193 -24 50 -28 68 -28 147 0 98 15 140
74 208 87 98 287 141 478 101z"/>
</g>
</svg>
